<svg xmlns="http://www.w3.org/2000/svg" viewBox="0 0 280 60" fill="none">
  <!-- ICON -->
  <g transform="translate(0, 2) scale(0.48)">
    <!-- Store body -->
    <rect x="13" y="48" width="82" height="58" rx="5" fill="#10B981"/>
    <!-- Awning -->
    <rect x="8" y="34" width="92" height="16" rx="4" fill="#0F172A"/>
    <!-- Scallops -->
    <path d="M8 50 Q18 60, 28 50 Q38 60, 48 50 Q58 60, 68 50 Q78 60, 88 50 Q96 60, 100 50" fill="#0F172A"/>
    <!-- Door frame -->
    <rect x="38" y="62" width="32" height="44" rx="5" fill="#0F172A"/>
    <!-- Door inner -->
    <rect x="41" y="65" width="26" height="41" rx="3.5" fill="#ECFDF5"/>
    <!-- Handle -->
    <circle cx="61" cy="86" r="2.2" fill="#0F172A"/>
    <!-- Sparkle large -->
    <path d="M98 12 L101 22 L111 25 L101 28 L98 38 L95 28 L85 25 L95 22Z" fill="#34D399"/>
    <!-- Sparkle small -->
    <path d="M112 4 L114 9 L119 11 L114 13 L112 18 L110 13 L105 11 L110 9Z" fill="#34D399" opacity="0.5"/>
    <!-- Sparkle dot -->
    <circle cx="84" cy="16" r="2" fill="#34D399" opacity="0.3"/>
  </g>
  <!-- TEXT -->
  <text x="68" y="42" font-family="system-ui, -apple-system, 'Segoe UI', sans-serif" font-size="32" font-weight="700" fill="#0F172A">Vend</text>
  <text x="137" y="42" font-family="system-ui, -apple-system, 'Segoe UI', sans-serif" font-size="32" font-weight="700" fill="#059669">fy</text>
</svg>
